<svg xmlns="http://www.w3.org/2000/svg" xmlns:xlink="http://www.w3.org/1999/xlink" viewBox="0 0 100 100" transform="scale(1)" version="1.1" height="100%"  x="0" y="0" ><path d="M55.8675762,57.6858508 C55.7521994,57.570474 55.5488428,57.5673711 55.4340706,57.6611982 C55.4340706,57.6611982 55.3808392,57.7067714 55.2388087,57.8179618 C52.6922064,59.8116028 49.4848857,61 46,61 C37.7157288,61 31,54.2842712 31,46 C31,37.7157288 37.7157288,31 46,31 C54.2842712,31 61,37.7157288 61,46 C61,49.4666902 59.8239803,52.6587063 57.8491239,55.1988653 C57.7280376,55.3546125 57.6627324,55.4317825 57.6627324,55.4317825 C57.5601236,55.557088 57.5698381,55.7515635 57.6858508,55.8675762 L58.6838476,56.865573 C58.7992243,56.9809498 59.0301294,57.049804 59.1953126,57.0239442 C59.1953126,57.0239442 59.2405401,57.0072112 59.4167681,57.0013773 C60.0840244,56.979288 60.7584405,57.2229066 61.267767,57.732233 L68.267767,64.732233 C69.2440777,65.7085438 69.2440777,67.2914562 68.267767,68.267767 C67.2914562,69.2440777 65.7085438,69.2440777 64.732233,68.267767 L57.732233,61.267767 C57.2154794,60.7510133 56.9722395,60.0643202 57.0025131,59.3875828 C57.0099586,59.2211462 57.0254854,59.1784509 57.0254854,59.1784509 C57.052545,59.0206658 56.9815857,58.7998602 56.865573,58.6838476 L55.8675762,57.6858508 Z M46,57 C52.0751322,57 57,52.0751322 57,46 C57,39.9248678 52.0751322,35 46,35 C39.9248678,35 35,39.9248678 35,46 C35,52.0751322 39.9248678,57 46,57 Z"/></svg>